<svg width="20" height="20" viewBox="0 0 20 20" fill="none" xmlns="http://www.w3.org/2000/svg">
<path d="M10.3333 3.41666C10.0833 3.33333 9.75 3.33333 9.5 3.49999L5.58333 6.66666H2.5C2 6.66666 1.66667 6.99999 1.66667 7.49999V12.5C1.66667 13 2 13.3333 2.5 13.3333H5.58333L9.5 16.5C9.66667 16.5833 9.83333 16.6667 10 16.6667C10.0833 16.6667 10.25 16.6667 10.3333 16.5833C10.5833 16.4167 10.8333 16.1667 10.8333 15.8333V4.16666C10.8333 3.83333 10.6667 3.49999 10.3333 3.41666ZM16.4167 5.24999C16.0833 4.91666 15.5833 4.91666 15.25 5.24999C14.9167 5.58333 14.9167 6.08333 15.25 6.41666C17.1667 8.33333 17.1667 11.5 15.25 13.5C15.1667 13.5833 15 13.6667 14.9167 13.8333C14.5833 14.1667 14.5 14.6667 14.8333 15C15 15.1667 15.25 15.25 15.5 15.3333C15.6667 15.3333 15.9167 15.25 16 15.1667C18.8333 12.8333 19.1667 8.58333 16.8333 5.74999C16.6667 5.58333 16.5 5.41666 16.4167 5.24999ZM14 7.66666C13.6667 7.33333 13.1667 7.33333 12.8333 7.66666C12.5 7.99999 12.5 8.49999 12.8333 8.83333C13.1667 9.08333 13.3333 9.58333 13.3333 9.99999C13.3333 10.5 13.0833 10.9167 12.75 11.25C12.4167 11.5833 12.3333 12.0833 12.6667 12.4167C13 12.75 13.5 12.8333 13.8333 12.5C14.5833 11.9167 15 11 15 9.99999C15 9.08333 14.6667 8.24999 14 7.66666Z" fill="#323232" fill-opacity="0.6"/>
</svg>
